<mxfile host="app.diagrams.net" modified="2021-10-12T06:14:06.160Z" agent="5.0 (Windows NT 10.0; Win64; x64) AppleWebKit/537.36 (KHTML, like Gecko) Chrome/94.0.4606.71 Safari/537.36" etag="ITbvhXpnUSg4rIjXScTQ" version="15.5.1" type="github" pages="2">
  <diagram id="C5RBs43oDa-KdzZeNtuy" name="maxVM&#39;s">
    <mxGraphModel dx="1422" dy="914" grid="1" gridSize="10" guides="1" tooltips="1" connect="1" arrows="1" fold="1" page="1" pageScale="1" pageWidth="827" pageHeight="1169" math="0" shadow="0">
      <root>
        <mxCell id="WIyWlLk6GJQsqaUBKTNV-0" />
        <mxCell id="WIyWlLk6GJQsqaUBKTNV-1" parent="WIyWlLk6GJQsqaUBKTNV-0" />
        <mxCell id="WIyWlLk6GJQsqaUBKTNV-2" value="" style="rounded=0;html=1;jettySize=auto;orthogonalLoop=1;fontSize=11;endArrow=block;endFill=0;endSize=8;strokeWidth=1;shadow=0;labelBackgroundColor=none;edgeStyle=orthogonalEdgeStyle;" parent="WIyWlLk6GJQsqaUBKTNV-1" source="WIyWlLk6GJQsqaUBKTNV-3" target="WIyWlLk6GJQsqaUBKTNV-6" edge="1">
          <mxGeometry relative="1" as="geometry" />
        </mxCell>
        <mxCell id="WIyWlLk6GJQsqaUBKTNV-3" value="landing page" style="rounded=1;whiteSpace=wrap;html=1;fontSize=12;glass=0;strokeWidth=1;shadow=0;" parent="WIyWlLk6GJQsqaUBKTNV-1" vertex="1">
          <mxGeometry x="90" y="110" width="120" height="40" as="geometry" />
        </mxCell>
        <mxCell id="WIyWlLk6GJQsqaUBKTNV-4" value="Yes" style="rounded=0;html=1;jettySize=auto;orthogonalLoop=1;fontSize=11;endArrow=block;endFill=0;endSize=8;strokeWidth=1;shadow=0;labelBackgroundColor=none;edgeStyle=orthogonalEdgeStyle;" parent="WIyWlLk6GJQsqaUBKTNV-1" source="WIyWlLk6GJQsqaUBKTNV-6" target="WIyWlLk6GJQsqaUBKTNV-10" edge="1">
          <mxGeometry x="-0.8095" y="30" relative="1" as="geometry">
            <mxPoint as="offset" />
          </mxGeometry>
        </mxCell>
        <mxCell id="WIyWlLk6GJQsqaUBKTNV-5" value="No" style="edgeStyle=orthogonalEdgeStyle;rounded=0;html=1;jettySize=auto;orthogonalLoop=1;fontSize=11;endArrow=block;endFill=0;endSize=8;strokeWidth=1;shadow=0;labelBackgroundColor=none;" parent="WIyWlLk6GJQsqaUBKTNV-1" source="WIyWlLk6GJQsqaUBKTNV-6" target="WIyWlLk6GJQsqaUBKTNV-7" edge="1">
          <mxGeometry y="10" relative="1" as="geometry">
            <mxPoint as="offset" />
          </mxGeometry>
        </mxCell>
        <mxCell id="WIyWlLk6GJQsqaUBKTNV-6" value="VM &amp;lt; 10" style="rhombus;whiteSpace=wrap;html=1;shadow=0;fontFamily=Helvetica;fontSize=12;align=center;strokeWidth=1;spacing=6;spacingTop=-4;" parent="WIyWlLk6GJQsqaUBKTNV-1" vertex="1">
          <mxGeometry x="100" y="200" width="100" height="80" as="geometry" />
        </mxCell>
        <mxCell id="WIyWlLk6GJQsqaUBKTNV-7" value="try to create VM" style="rounded=1;whiteSpace=wrap;html=1;fontSize=12;glass=0;strokeWidth=1;shadow=0;" parent="WIyWlLk6GJQsqaUBKTNV-1" vertex="1">
          <mxGeometry x="250" y="220" width="120" height="40" as="geometry" />
        </mxCell>
        <mxCell id="WIyWlLk6GJQsqaUBKTNV-8" value="No" style="rounded=0;html=1;jettySize=auto;orthogonalLoop=1;fontSize=11;endArrow=block;endFill=0;endSize=8;strokeWidth=1;shadow=0;labelBackgroundColor=none;edgeStyle=orthogonalEdgeStyle;" parent="WIyWlLk6GJQsqaUBKTNV-1" source="WIyWlLk6GJQsqaUBKTNV-10" edge="1">
          <mxGeometry x="0.3333" y="20" relative="1" as="geometry">
            <mxPoint as="offset" />
            <mxPoint x="150" y="550" as="targetPoint" />
          </mxGeometry>
        </mxCell>
        <mxCell id="WIyWlLk6GJQsqaUBKTNV-10" value="MyVM&#39;s==VM&#39;s&lt;br&gt;?" style="rhombus;whiteSpace=wrap;html=1;shadow=0;fontFamily=Helvetica;fontSize=12;align=center;strokeWidth=1;spacing=6;spacingTop=-4;" parent="WIyWlLk6GJQsqaUBKTNV-1" vertex="1">
          <mxGeometry x="90" y="410" width="120" height="90" as="geometry" />
        </mxCell>
        <mxCell id="WIyWlLk6GJQsqaUBKTNV-11" value="Test Failed" style="rounded=1;whiteSpace=wrap;html=1;fontSize=12;glass=0;strokeWidth=1;shadow=0;" parent="WIyWlLk6GJQsqaUBKTNV-1" vertex="1">
          <mxGeometry x="90" y="550" width="120" height="40" as="geometry" />
        </mxCell>
        <mxCell id="WIyWlLk6GJQsqaUBKTNV-12" value="Test Passed" style="rounded=1;whiteSpace=wrap;html=1;fontSize=12;glass=0;strokeWidth=1;shadow=0;" parent="WIyWlLk6GJQsqaUBKTNV-1" vertex="1">
          <mxGeometry x="430" y="435" width="120" height="40" as="geometry" />
        </mxCell>
        <mxCell id="JRiYcBHVBFqXgaBX5MrF-0" value="goto MyVM&#39;s" style="rounded=1;whiteSpace=wrap;html=1;fontSize=12;glass=0;strokeWidth=1;shadow=0;" vertex="1" parent="WIyWlLk6GJQsqaUBKTNV-1">
          <mxGeometry x="90" y="320" width="120" height="40" as="geometry" />
        </mxCell>
        <mxCell id="JRiYcBHVBFqXgaBX5MrF-1" value="" style="endArrow=classic;html=1;rounded=0;exitX=0.5;exitY=0;exitDx=0;exitDy=0;entryX=1;entryY=0.5;entryDx=0;entryDy=0;" edge="1" parent="WIyWlLk6GJQsqaUBKTNV-1" source="WIyWlLk6GJQsqaUBKTNV-7" target="WIyWlLk6GJQsqaUBKTNV-3">
          <mxGeometry width="50" height="50" relative="1" as="geometry">
            <mxPoint x="320" y="530" as="sourcePoint" />
            <mxPoint x="310" y="140" as="targetPoint" />
            <Array as="points">
              <mxPoint x="310" y="150" />
              <mxPoint x="310" y="130" />
              <mxPoint x="290" y="130" />
            </Array>
          </mxGeometry>
        </mxCell>
        <mxCell id="JRiYcBHVBFqXgaBX5MrF-2" value="Try to create VM" style="rhombus;whiteSpace=wrap;html=1;shadow=0;fontFamily=Helvetica;fontSize=12;align=center;strokeWidth=1;spacing=6;spacingTop=-4;" vertex="1" parent="WIyWlLk6GJQsqaUBKTNV-1">
          <mxGeometry x="260" y="412.5" width="120" height="85" as="geometry" />
        </mxCell>
        <mxCell id="JRiYcBHVBFqXgaBX5MrF-3" value="" style="edgeStyle=orthogonalEdgeStyle;rounded=0;html=1;jettySize=auto;orthogonalLoop=1;fontSize=11;endArrow=none;endFill=0;endSize=8;strokeWidth=1;shadow=0;labelBackgroundColor=none;" edge="1" parent="WIyWlLk6GJQsqaUBKTNV-1" source="WIyWlLk6GJQsqaUBKTNV-10" target="JRiYcBHVBFqXgaBX5MrF-2">
          <mxGeometry x="-0.8182" y="15" relative="1" as="geometry">
            <mxPoint as="offset" />
            <mxPoint x="210" y="455" as="sourcePoint" />
            <mxPoint x="430" y="455" as="targetPoint" />
          </mxGeometry>
        </mxCell>
        <mxCell id="JRiYcBHVBFqXgaBX5MrF-5" value="Yes" style="edgeStyle=orthogonalEdgeStyle;rounded=0;html=1;jettySize=auto;orthogonalLoop=1;fontSize=11;endArrow=block;endFill=0;endSize=8;strokeWidth=1;shadow=0;labelBackgroundColor=none;startArrow=none;" edge="1" parent="WIyWlLk6GJQsqaUBKTNV-1">
          <mxGeometry x="-1" y="201" relative="1" as="geometry">
            <mxPoint x="-200" y="187" as="offset" />
            <mxPoint x="420" y="454.5" as="sourcePoint" />
            <mxPoint x="430" y="454.5" as="targetPoint" />
            <Array as="points">
              <mxPoint x="430" y="454.5" />
              <mxPoint x="430" y="454.5" />
            </Array>
          </mxGeometry>
        </mxCell>
        <mxCell id="JRiYcBHVBFqXgaBX5MrF-6" value="False" style="text;html=1;strokeColor=none;fillColor=none;align=center;verticalAlign=middle;whiteSpace=wrap;rounded=0;" vertex="1" parent="WIyWlLk6GJQsqaUBKTNV-1">
          <mxGeometry x="370" y="430" width="60" height="30" as="geometry" />
        </mxCell>
        <mxCell id="JRiYcBHVBFqXgaBX5MrF-7" value="" style="edgeStyle=orthogonalEdgeStyle;rounded=0;html=1;jettySize=auto;orthogonalLoop=1;fontSize=11;endArrow=none;endFill=0;endSize=8;strokeWidth=1;shadow=0;labelBackgroundColor=none;" edge="1" parent="WIyWlLk6GJQsqaUBKTNV-1">
          <mxGeometry x="-0.8182" y="15" relative="1" as="geometry">
            <mxPoint as="offset" />
            <mxPoint x="380" y="454.5" as="sourcePoint" />
            <mxPoint x="430" y="454.5" as="targetPoint" />
            <Array as="points">
              <mxPoint x="400" y="454.5" />
              <mxPoint x="400" y="454.5" />
            </Array>
          </mxGeometry>
        </mxCell>
        <mxCell id="JRiYcBHVBFqXgaBX5MrF-8" value="True" style="text;html=1;strokeColor=none;fillColor=none;align=center;verticalAlign=middle;whiteSpace=wrap;rounded=0;" vertex="1" parent="WIyWlLk6GJQsqaUBKTNV-1">
          <mxGeometry x="310" y="520" width="60" height="30" as="geometry" />
        </mxCell>
        <mxCell id="JRiYcBHVBFqXgaBX5MrF-9" value="" style="endArrow=classic;html=1;rounded=0;exitX=0.5;exitY=1;exitDx=0;exitDy=0;entryX=1;entryY=0.5;entryDx=0;entryDy=0;" edge="1" parent="WIyWlLk6GJQsqaUBKTNV-1" source="JRiYcBHVBFqXgaBX5MrF-2" target="WIyWlLk6GJQsqaUBKTNV-11">
          <mxGeometry width="50" height="50" relative="1" as="geometry">
            <mxPoint x="200" y="380" as="sourcePoint" />
            <mxPoint x="250" y="330" as="targetPoint" />
            <Array as="points">
              <mxPoint x="320" y="570" />
            </Array>
          </mxGeometry>
        </mxCell>
        <mxCell id="JRiYcBHVBFqXgaBX5MrF-14" value="" style="shape=image;verticalLabelPosition=bottom;labelBackgroundColor=#ffffff;verticalAlign=top;aspect=fixed;imageAspect=0;image=data:image/png,iVBORw0KGgoAAAANSUhEUgAAATEAAAEaCAYAAAB5DmCdAAAgAElEQVR4Ae2d7W8UV5r2+Th/wn7cv6U+tYjkiJElhLXJmCQyO5KHR4wnM3gZKRmNHQTOsljhwcmOPGhZP7OJg4jZJEYBExhgGDtBTQg4YeIE4tcGmzadaWzGxuF6dKrOqTp1uqpf7O6uqu7LUqlfquq8XOc+v7rv+5yGbbu2z4AHNaAN0AaSagPbktpwtpuTjjZAGxA2QIjRE6UnThtItA0QYjTgRBswvTF6Y4QYIUaI0QYSbQOEGA040QZMT4yeGCFGiBFitIFE2wAhRgNOtAHTE6MnRogRYoQYbSDRNkCI0YATbcD0xOiJxRJiv//NA9TyoOHT8GkDjWMDsYKYANfkl/9APf5O/b8f6IHQC6UNNIANxApi9YCXXgdB1jhPY3pWzTuWsYGYAEoUfzT+5jV+jn1jjH1sIGaGkQJqtTjMekQIS2NuDGPmODbnOMYWYrUySNPjI8Sa0/BrZV8st/72RIjRE6Mn2gDJ7WaGZyIhthXviZ5Y/Z+UzTzB2Pfa21vdIKa2T4iclDhMEJm5qmKDr0BkllHsHnVO3asWETZThiqLr7U3UGpMjUvZQF0hpsAhXgVM9MZtBmJB5ehlBr0nxKKeFI8x5xrCOi5WFMotoOeNJfS8EnUfWH/Q3Irqu8RDrFKQVQdiC/jkO3cmAstPcKzEZPzg62feDY+fYMi+/hFuP/a+Fu/mzi344B5sGFncWDbvKz2xeq489W6aX0FPiTYH1126nuL3bRZii7j4vdRwYwOf/cdW28H7i49TcvRpCIipmVlOaFgdiM1g15/WsK4qxgZuvFls0H/AN6vuxXj0eVaCqhBiKAcu//kEK15x9ru5c8XqF+dM8JVqc6nyNnt+sxDT7xOw32z9vK9R4KX60VAQE7PZDFNVR9Vr1SC2PecD0+KVxXAP6r8N4LleRADE8BSfHSg+0d67rXl1EmYlJ3UA+DyYFq9PaVedVx1GlYSTC/jg9o9Ob1fXcfF39Wwz66rO2NdGx4aDWCmQVQ9iM/DB5P5qaHjmu84XegZBDJqnFjTofq9OMqykZ+Jrg7ppdQ3v1T2k3CzEgrTgd3GGS73a1pAQU3M0KLysJsR2+bybp7ga6EH5QeX32PznsCFbvvwE74TAZe//rqnuYeWx9EzsXFqxCa2Bb3UNt9183jN889/F7qvFOUKsXpO7WeppaIiJ2W6CrKoQM/JMi5cCQsqioNMhto5v3OR/GFz0BYWn+Obr8iCmg2/9ds6fz/vu7yFhsAYbsRBxKI9vllQYa4SBrzzEB39Zw6PH6jyAjWdYmX2CiwP3jfK1crGOi68s45PbT7HisRkrS2u4+n/NBQ5dqx9x+z8lYPVQ3V0w0eGr31eoa/fACu4t/Yh19QABsP7DOm588BB7Qx4kzQKHpPSzoSEmtm2YA1FdiM3gnc816599XGD4Qzc90BQm7fUJto6L2oS0YWNOogMrWFR+2PwKPtDKDs+J6eBTk1jL522s4ZPALQs6bJ5hXYMMBHxU2155hNvGSqlqovP6DHPndLjr5f6IlbDf/W88xVVf3kvXSoOYLzepfy9B9h9P8Eg1yBc+L2BofENbnFEXea8r3+VxSPWTrwVzyZxbUX1uWIgJWAWJWm2I7dInie1Z6F6Af0WwcPuEPjEFGLTrN9bwkTFxei55WyREWTogQyGmg0/zVPQcWaAHuV2HjTexsfYM6xsKYou4OKt5X2sbuPf5Cq5eWMXtWQ3eYvXWXcwwy32GR98/wWcXVnBDeGTaM8EPcl0rP6x0HR6NP/SN+7Fxr8CVm4/cc4fOrXsA2/gRczdXcfXCCj67ue5rgx/A+tjyfdD8iuK7hoNY0K8BdGGrDrHtD317tu79rxYG6YAL9Hj0ielsedA9O19Zej2yLH3yhkFM3xvmW43Uw9zAbR1+2KzPr+LE/zEmruY5Ys1cMfRD1gOSXu4z3DvlDzf10Bc/PMEJF+S6Vn6I+R4kvoWTRXx2XwFYB6nmieJH3B7Uxmz7DPYOaltYfOUZ/Xfbxu/1OVbv9w0FsaDw0RS0+hCbgQ4KfJd3Q0rdC9C/99oUMDF1z0kPTzUgrn/teJkXZ9UEDds3pXl2BXvZip0Tk1KHzVNcDQg5T6Q9b0v3ctz+vbmKxdVnWBfHN3npBenlKo9Og8CBVS9k1jzHXdsDtHIhovdF26Kia6kvluh7/HSN3fL0uoL77vbRvUfrA79zPd566NQwEAsLH00RawGxXfpkccNAw0P7IMjI9cmivItFXJ1XcPJWPD2vS+W1ZlASYhr4ELAFRPf6fF6aPQlLwGZ7GfUHTuZS5Wrny4bYDPQHhgqP957ztiPr/fM9dJTUoa9qXILGj9+Z8yuKz4mHWKnw0RS1JhDbroMHuCeA9aY/ofxB4IQOgtgM9JDKyfFo4Y/mUZSCmJ73Cp2j6oQPGGJyajDRE/laP0rVb2rvfC5Vrnbe16Zgrdw6dA/O9q70BQ3/rxO8B4LqfLFXQszVWBv7OH2XaIiVEz6aYtcGYjPQn/oi3NOf9l4+yHxyh03Mv+OeykcLaGnhj+5RFIeIBr5ic9Q953l4jmYaTJIAMf1BYucMNQ0NL1QPg9e/e4xjbz4scvAH5+YcitvnxEKs3PDRFLxWENv1St4Dz+oa7rkJZRMOOsjCIKb/GuBHPHK3MHjhpehXMYjp3hzEvqsLYtUw4Pha0RKAb89YaYjpMAjMib2yjI9Une+p34uWKlc7X4kntn0G+urtvZveT71UeOnawgfafhHNs3XPx9TjYPv0ueO9TyTEtjKYNYPYdj18cd0bwDcRPeGdPoRDbJe+8qeKM1YRwyHmb4v/VwJGG/Sw17eCqsEkxBPztbFgdXIGhy54W0LUYkTpMFWr16ddEa0UdF7R7lWawQ9+W3f9gQNAANjc2Lr30ArufbOCYwELGluxP95r2J8auy28EmJV/Oepfd6PnER6+FdowMUmpr7i5hTm33JRxBPTFxpK/qDcvwDh7WXTgRCwimgbXdg+sRXc+EbfSKrnlUqVq52vFGJBDxID/GoMDun/LJHYpb+8hhu217iK2997bV+/vxL6EzBVFl+rD6ZKNCXEqgixXdu1PIzNHX1vUtBAF4OYf8UN7qqnV06YJ6aHVUGrkqaB6Ct73q8KNJiEeWICZFvasR8ER63eiiHmXxQRQ+BB2dPN6f99vHdTC6XlQ8f3srFRsIfM1I6fTV3r/zm2EPMZUw0/VNsIff/4YcmNksUhpm/dCFocCIaY34Mzd7AH9lffiuHurtdgUgxitkd2HycuBP928qND/o2kNQ0n7bZoDxJfeBw8uboHHtu/LtB/O4k1sYP/ceHmXrv84HICdeX1ddkvFhuIiR9qR/FH4+OkpA0k2wZiAzFhSGbSvdZQ2+wKJ40+2UbP8Wus8YsVxBTIBFzEHrBaHaJ885/ooWE3lmFzPJtnPGMHMRpf8xgfx5pjXQ0bIMSYfK1L8rUaxsoyCL0gGyDECDFCjDaQaBuIDGIi3yVyU/U4gujN7/hUpw00hg3UDWLCYKL428yPxGncjWHcHMfmGMe6Qkx4XfX+I8Saw5AJrOYd57pCTBhavUFGiDWvcRNszTH2dYeYMiyxT6teh6qTr81h1Bzn5hrnyCBGQ2suQ+N4c7xrZQOEGJfXE728XquJwXKTA11CjBAjxGgDibYBQowGnGgDpseUHI+pVmNFiBFihBhtINE2QIjRgBNtwLV6urPc5Hh4hBghRojRBhJtA4QYDTjRBkyPKTkeU63GihAjxAgx2kCibYAQowEn2oBr9XRnucnx8AgxQowQow0k2gYIMRpwog2YHlNyPKZajRUhRogRYrSBRNsAIUYDTrQB1+rpznKT4+ERYoQYIUYbSLQNEGI04EQbMD2m5HhMtRorQowQI8RoA4m2AUKMBpxoA67V053lJsfDI8QIMUKMNpBoGyDEaMCJNmB6TMnxmGo1VtvOnj0LcYyOjrrHxx9/DB7UgDZAG4jCBj788EN89NFHBUdYW7b9+c9/hjguXbrEgxrQBmgDkdvA2NgYxHHhwgV8+umnvuPixYswj22ff/459OOzzz4DD2pAG6ANRGUD165dgzr++te/Qhzj4+P2MTExAfPY9tVXX2FyctI+bt++DR7UgDZAG4jSBm7evAl1fPnll1DHrVu3IA6zbdvu3buHu3fv8qAGtAHaQCxsYGpqCvrx7bffQh3fffcdzGNbJpNB0LGwsAAe1IA2QBuotw1MT09DHDMzM+4xOzsLdczNzWF+ft49tmWzWfCgBrQB2kBcbEA5Vffv38eDBw/sY3FxEepYWlrCw4cP3WPb48ePkc/neVAD2gBtIBY2oGC6vLwMcTx69Mg+crkc1PH3v/8d6tj25MkTrK6u8qAGtAHaQCxsQIfWDz/8AHEIYOnOlnC+VlZW7GPb2toaeFAD2gBtIC42oENLwEoBy3S2/vGPf0Ac2zY2NsCDGtAGaANxsQHhdSkvS4BLRIviMCH79OlTiGPbjz/+iKAjLh1iOzi5aAPNZQMibBQQU56X8rjE6/r6uu+wIfbs2TPwoAa0AdpAXGxAhY9BHpjyvsSreLgJB2xbXBrOdnAS0QZoA8IGhCcmQKZCSeGBqVAyEGIw/mhINCTaAG0gShtQnpiAmA4wATIdYuK97YkZDONHKkAFqECkCiiIiXBS5cNULszMjwrYbou0taycClABKmAoICAmjiCIqVyYghkhZojHj1SACkSvgA4xBTLliRFi0Y8PW0AFqEAJBVRiX61OqryYAJkJMebESojJ01SACtRfgWIQEyBToaS7xaL+TWSNVIAKUIFwBQixcG14hgpQgQQoQIglYJDYRCpABcIVIMTCteEZKkAFEqCAgpi5Y1+tUDInloBBZBOpQDMrQIg18+iz71SgARQgxBpgENkFKtDMChBizTz67DsVaAAFFMTEvymmduyLH38zJ9YAg8suUIFmUCDWEDt06BDEwT8qQAWoQJgCsYWYgNfu3bvtgyALGz5+TwWoQOwg9vXXX7vwUhBTr+Ic/6gAFaACugKxgpgJsKGhIYhDQUy8EmT68PE9FaACsYHYyMiID1YCXl988YV9mCAT19bjL3O6E5bViZFMSG3X+2FZFvqvh5zn11SACtRcgVhArBjAogQZIVZz+2MFVGDLCkQOMRNgf/zjH10PTAFMvf7lL3/xeWu19sgIsS3bFwugAjVXIFKImQC7cOFCKMAUyMQ1eo6sliDbHMTymDrbh67WlB1qWs+1ouv4ODIb2liqMPTCFEZ62tGSsmBZKbT+chDpHIDFcQz8shUpy4KVakF7zwim8tr94m2mjGuMW/iRCjSiApFBbDMAqzfIKofYGtJvtdpA6jg+ivFr4xg73YeOlIXU3hEPZBJiqVQL1HWjJ7rQKqDV3oGOVCu6Tjj3q+9bjqaxpixwbgSdKcuG3ui1cYxfGMZrOy1YOwcwqcNSXc9XKtDACkQCMX0PmPCq3njjjZIemAKYehX36B5ZLfaSVQyx6WG0WxY63/evBOSv99uA6jqbdUxJQsy8bupEm+29+b9fw+Ue4ZH1I23fncFIpwWrc9iDovj+7pBdd/c502VrYOtl16gA4P7nuXX72ZEJsGpBTJRTbZA5EBOhXvFDrU5OnxQQ6saYCAl9f9MYesGCtX8MNmJUOGmsajr1dWB4zncznO8lxDIj6LQsFMJqEgM7LFhHHdT5S+AnKtC4CkTiiSk5FdB0T8z0sHRvK+i6aoNLtU28OvBoQ99H43ZoKMJD33Gyy7fFIn1UwE55THpJgH1uxwAmxddFIVa4pcMHMXlvKFgJMb/w/NTwChBiRYbYgUchVNxbDBgVg9j4YQtWFSHWddIAqgLslAxZ3UbyDRVobAViCzHhYYnkv74AEI0nVj7EqhNOFtbn88TuDqHNsuDm1xrbPtk7KlBSgVhDTLW+WNhZ+3CyECqqXQVhYYWJfZVLU+WFeX4+iGEKgyErkZmJcUxzdVLJydcmUYAQKzLQYVBxbzHCSaCyLRabgxigVjtTHX0YuSDCyjGMHO5AympF3zWuTrrjwzdNoQAhVmSYK4eYKKyCza6Bq5OFnp/fE3ManL8zij61IdbeKNuH0TsEWJHh5KkGVYAQa9CBZbeoQLMoEAuIiW0U6p/dUfkvPdelvit1XbMMGvtJBaiAp0BsIKbvBxPvwyBW7DqvW3xHBahAsyhAiDXLSLOfVKBBFYgUYg2qKbtFBahAHRUgxOooNquiAlSg+goQYtXXlCVSASpQRwUIsTqKzaqoABWovgKEWPU1ZYlUgArUUQFCrI5isyoqQAWqrwAhVn1NWSIVoAJ1VIAQq6PYrIoKUIHqK0CIVV9TlkgFqEAdFSDE6ig2q6ICVKD6ChBi1deUJVIBKlBHBQixOorNqqgAFai+AoRY9TVliVSACtRRAUKsjmKzKipABaqvACFWfU1ZIhWgAnVUgBCro9isigpQgeorQIhVX1OWSAWoQB0VIMTqKDarogJUoPoKEGLV15QlUgEqUEcFCLE6is2qqAAVqL4CtYHY2bPAP/8zsG0bD2qQDBsQ9nriRPVnGEusuQK1gdg//VMyDJeA4TjpNvCTn9R8wrGC6itQG4jphsH3BEWSbKD6c4wl1liB2kOsxh1g8VRgywrokN1yYSyg3goQYvVWnPXFTwFCLH5jUkGLCLEKxOKlDaoAIZbogSXEEj18bHxVFCDEqiJjVIVEDrGvv/4aIyMjmzrEvfyjAltWgBDbsoRRFhA5xATAdu/evalD3Ms/KrBlBQixLUsYZQGEWJTqs+54KECIxWMcNtmKyCG2yXbzNipQPQUIseppGUFJhFgEorPKmClAiMVsQCprTmQQ22wyP+y+yrrNq7emQB5T73bhtbPZrRVTk7szGNnfjeE7+fJLJ8TK1yqGV0YGsc0m88Puq4W2mdOdsCwL1svDmC5WQWYEneI6qxMjmWIXhp+bOtEGy2rD0N2wa7IYfdWClerF5VWgnm3ztyiP9NFWWFYKHSensKaf3MggfboPXW0tSAk9jqb1s9r7NVzuEXp1YdTk4MYaMpOjGDzQjq7TAWJu5DF1uhftO1LO2DzXiq5/H8WUYtbaFIY6xLlW9F9XX2pVB70lxIJUScx3hFiRoXJBYbVg4Fb4hdPvtjsTagsQw/Qw2i0LLe9MBleUHUWXZSElwVDXtmktyk/0oUW08/A4fIiYG8NrOwWYtCMMYquX0Suue3UUimFr2SmMnehG+3Pe/Z0FEFMA9a5x69s5gMkN2dD8OPp2SOD7Gql1RH9LiOlqJO59ZBBLglIOKFJIpSy0HA+By8YkBnZYSKXE03/znhiQwUinBWvHAIJqyp7tgqXBtL5tk6Ml+mqDyvCg8mn0S4Cl2l7D8LUpZHJ5rCmoGIO9dqnXhl2XG46m0a/DT74vgJgEvfACO9+ftsvPTg5KL9iCVx7g6FVk3PQ2EWK6Gol7T4gVGTIHFH0YON7ihnHm5WtXepEScDne50Hser8dTnWfM9yAyQHbi9Enm16eC6oCimmAk2DYdNtUhZlxDPyy1Qn7rBRaf9mH0RJ5JKevFlIHL/vCyMl3RHgpwu5BTIWAS1ULBIWSafTvaEf3iVFMTo85XpplwYSY02fhhfVh3K1HlWfB2j/meYfK27O6MZbzag98R4gFypKULyOB2FZ26Ycl9mux8dWZNP1ISw+gED5yAomc2fV+D2LSO/NNKgDTJ0Xeq8ikkiFjQUgpc25tJ73M3KbbJiwzO4bulIVURz9Gr41j/Noo+mUeaaAAoJ4pp486eSg/nB1PVECs68SoB8ZUCzqPjyPrwkaWkxtDtxFKejWId55XZkIsfVSGkZ0j0LNl6bdkfsznxeYxtt+5vveSL3Pnr058IsQKNUnQN3WH2KFDhza1Oz8soa9/L8qu5p8Dik6MLMqkujF5IKFjw02HGIBJ4b1ZThLeadM0hl82vIWCxkoo+iajSuK3Y9hjmEzsb65t2TNiwaIDw3NaA/JjeE3k3N4KS8ZPY+gFAQVj8cFd1JCAMcLCVM9lzzsCkD/XbYSSWhvst5VDzPPQ+qG3fvIdMQbF+iTrJsTMQUjU57pCTHhLOnRq8b6av6d0IZYBnFDKDxInoe+AygGDlhOToaPrBcjJXujN+e3FDU/dhQQZShorpFtpm6qj95zuz/jbUfhJwUXro7jIhrcDsNTeIUyKTP1GBmMHZYhp6Zop78jIqfkqU/UUhpNhnlgYxNzv9464Cwi+qtQHQkwpkcjXyCD2xRdfoJqHAmI1w0odFNhIo19P8KuEvswP+a61TUGGWT1O/sjxQIpNXmk/Ipej1xMSyvrqq7RtG1lcPtzm5MPEFoWeQYxcz4Qm4u2WuTkmv7ejQ6z/ujYHNA+t84xcgywZSor7awAx04PWmmm/JcRMRRL1OZYQGxoagjgqgVzNIaZCRLlPC7dEkt7beuGDijQBOwdmXy89EG1LQTErsUNREVJuAI63Vwg/sz77ngraJuoX2xrGTw+iVyb4xcriWJhzpgDkS6oLUZzFChG2+SAWAKPSoaRoVeUQC86JqTDcgkWIFTO3xJ+LLcQUlMqFmbq+Zp6YGGrpFfVeyuLywZRvE6wJFdsy7g6hzUqh99yoveJWKpR0rckFZHgeraC+Ctq2ls8jnzeS3dPD9laF8JyYgosRTrpw829xgOaJOQsB5YSSQgFVT2E46YTsInQtY3USGsQYTrqm1YhvYg8xBadSMFPX1RRikAn+9nZ7Y6oOpQKo2NbiQCj1XAqpoN3poRblhKItezvRLiB4xQCOO0F1oJTbNgkT6el5TZCJ+7ANqghJ7COLsf1ydXBnr+PJ+XJi0otUsCvpjYZDTD1E9H1i+TvB+8REv5zVYCb2vTFuzHeJgZiA1BtvvBEaZtYHYirBL7wBfeVRPfV1qDgG4+7mLzl5/Qbm3qdCRP9pb3VSC//UPq5SbVu70Y9WsWr38wG5xWIMw78TObJgYKqqg7dYAJgbQWcqaHUy5e71Ki+UFDUVgRjWkH5LLRgY9e3sR3pVtVS8Ks/Pgru4op/W3zMnpquRuPeJg9iFCxcCc2X1gphK8JsbPoM9MTHBh9Eh9lC5u9PLtBEZHqqfGZl3BdYnE/zltC1/ZxR92mbXlpe7MTihfgRk1uZ8VpA0y7fPLo7bv3dssWGWgl3eNUVYBZTC3F5hTcUgJlY+nd9OdrRK78/87aQq0F2I8D9s1GnfKyHmkyNpHxIBMeGBhcFLJf9rAbFqDKYz8cuZvNWorcZlhP3sqFS1cj+d/lvJUrds9Tx/drRVBZNzf+whVioXFm+I5XG5J+X7oXNyTCO4peoH4K1H075NrMFXR/QtfwAekfDRVBtbiJULr3hCLIupa2MYOdyBlPgnYW4UJuajGe5q1Kr+JQn5I+xqFFnNMtamMbxXhJr8p3iqKWucy4olxBSYKnmNVzg5iQHxT8o8147es9pvheJsCRW1jf8oYkVy8eKaKlAJxDY2NrCtrNaEJErFT4IUbGr1Ws0tFmX1lRclX4EQe01+x5qjB3WFmJA0ST8Abw4TYC/5r1gk2wbqDjEhl/CWqn1U84ffyR5Str5iBeiJVSxZnG4oF2JPnz7FlsPJOHWcbaECrgKEmCtFEt8QYkkcNba5ugoQYtXVs86lEWJ1FpzVxVABQiyGg1J+kwix8rXilY2qACGW6JElxBI9fGx8VRQgxKoiY1SFEGJRKc9646MAIRafsdhES2oPMd1A+N7/P+tQj/jpsYlJxFuiVaA2EPvJT+JnnAQGx6QcG4h2PrL2TShQG4gdPMgJU86E4TXxspN//ddNTCHeErUCtYFY1L1i/VSACjSNAoRY0ww1O0oFGlMBQqwxx5W9ogJNowAh1jRDzY5SgcZUgBBrzHFlr6hA0yhAiDXNULOjVKAxFSDEGnNc2Ssq0DQKEGJNM9TsKBVoTAUIscYcV/aKCjSNAoRY0ww1O0oFGlMBQqwxx5W9ogJNowAh1jRDzY5SgcZUgBBrzHFlr6hA0yhAiDXNULOjVKAxFSDEGnNc2Ssq0DQKxBpi4j/E5X+K2zS2yI5SgU0pEFuIif8hfPfu3fYh3hNmmxpf3kQFGl6BREBMwOzQoUMNPxjsIBWgApUrEEuICa9LeWEHDx5031fePd5BBahAoysQS4gJ0RXEbt++jZ6eHvszQ8pGN0f2jwpUrkDsICbyXyJ0VBC7cuUKLly4YH9mSFn5APMOKtDoCsQKYnoyX0HsjTfewBdffAEVVkbhjeXvjKLvl61IWRYsy0KqtQPdJ8aR2UiyeWQw0un0p+XwOPIFXfHO918vOFnDL9Zw+WDK1tnquYy1oJpyY+i2x6IFA7cAXO93rhdjczDkHlHOrQG0yDG0OkeQCSqb3yVOgdhATAfYl19+aYOrt7fX9sDOnTuH3//+95GElJnTnRq82tD2ggazjiFM1RVkafTbk7ATI1uegR6kLKsV/TdMXHjn6wsxB0rOA6MXl1cL51T+XLcDrR0DmBT6axCzrOB7RCnpoxKOQkNCrFDYhH4TC4jp4aPwwEZHR22IKW9saGgIAmTic11DyskBtAqDT3Vi6I7mq2xMY3ivMyHa352u49DXCmIWrJ0SCG5vIoTYxiQGdggvMYXeKyZc8xjbLz3Idyad1vogZqHrbNbthftm9TJ6U859wpsmxFxlEv8mcojpHpgOMxFGKoiJUHJsbMz9XJ+Q0gtrAkF1vd/x0F4YgsCY8NjsyXF0DJMnOtGSstB5WrlLeUyd7UNXq/QEnmtF13EzHDWuSbWgvWcEUznHxtzybU9MTkbdm1gcx+CBdrteMflbXu7FiA7eAlP1IJVKSSCf1IHsnfd5YhtZjJ/oRvsO557Ujnb0np5C3vZI13C5x4FP/w2vQuU5dZ/THgQ3pH77xwJCWWDyeIutZ+po2itIvBMwsjVow9BdeUpB7OV2tItzr47CxNjapV67vLZXu9BGiPk1rfDTxJXab0oAABIgSURBVNVViCMuf5FDTIFKeVgm1HSwqWvFNbX/S6PffnJrk0WvdDWD9LVxjF+bsieMC5lUyg0/HYitIf1WqwO451rR9kIb2hQA9o/JyaZf04Het/rR+3MJPOkh5W8Mo/+tbmeSWi3oPNyP/nfTDgAyI+i025pCS5se8rZiQDoretOd9x6k+t4fRqeY2Ck9TPXOexDLYER6oKkdop42tD7nALVVekVKhzYXiApsFvQcV+b9DlsTD/RGCydl/irVj7QWsisYWfLhYd+lIHZ0FKOviva0Y1jnMbLe9+/K/Jn+ADCq5sdwBQS8dm2fsY+4gCxSiOnACpNN3zNW13ByccSZ2JY+scNaqXliIvSczGJNTDxxTA874NnZj7RyRDamMfSymGwtDmTcRPVrGCu4JgUPIkHhpPIYU5rnB+Qv9TowDfF0AD+kpk+2O56PC1b/edHztStOmam9I96iRl6Fad0YE17j3SHH01H1bqiHgYCkApIKCUMeELbM0xh6QXp17sKC6qsFn3fsQiwN5fX5zmdH0aU8NHUtIRZuzCFndIDFCWSxh5jQU4BMeGTiqE8oKeLDTULs8LjPBKZPtjlhjOuZOKeVJ9Lxvgo5fbfZH9JHHS/H81YCIOaGV0ZCe2McfWLiWn0Y1zwZrxYDUiIPtdOBRu8lQVLjPDyPqveSP081fthpZ9+EKF3mswSwxEcZdne92mXnuBwgS7Cpa7xG+d4p7VqOS3fSzWsZnpYC094RZNU1IukvS1PeoZ0rU9cSYj6tS30IAlhcQBYpxFSoKF5j97dZT8zI4SgQ2fkyGyrOhHc/q+s3MnauqUPlzbRri0LMha1Rrnt/mCdpQgpYu9HvLGTs6MN43jzvfXbb7tbh1K3CZycv5nhZk++I3FY3xu462yJaRNg5N4wOcW/YFgplDMqLVUBSeUgTQAaYnFVIuf0C0xgWXm9KQn6izwntzTJUnXwtUKAYwOIAskghpoeKdfOwCoYo7AsVBoWEPGE5MQUlWayCWMvePvS/1V94nJsGxGpnh8iBpdC2fxCjdq5tHEN2fkdfIAjwxFyItaM7qPy3hpGWiwP+nnpQ8sLVPMYPOwn11nfGMCz3kTnnvevbDwT0461+DN9wYmEV0nWfSzshoZ1ol/e/MIRJmWT3Jfr9jZOfJIBk2K22SBSsPhoQU/vB7EUBGd6q/WPKK+PqZKDgBV+WA7CoQRYbiMXPG/PCJ19+RQ2z8gqkl+BODgNijidiwQ2J1P36q1qp6xj2bcBUACzqibn5tC6Mmktyeh0F7z0oeRAD4Oa4UkjJLQnOeZXHCtnCoJcvwZra22nnFVX7HY060b1fgLIDw3P6TcHvla4txwfkQktAP02IuSFtL/ptKCuvTMtd0hMLFlz7dvLmP3BqKFfRIe6p91+kEBOd1ZP7InEvPguvrJyj5mJp+8R8q135KQwZ+8TUZLMMiCmvQKz8+cpYHEP/4TEnQa4m4QuD3ubZ3Dj67RxVkCemA0CtvFloPToutzoIZfKYOtmHgVtqpcBUKwRiIht2xtvgK0JHBbnsWZHXEnvK+jGueXf5O0Poe2dS2yqh9nmJMFPzZFXSX5ShQkSzWeZnlZRXoataMNCvU/ppYJp+11mosNsr6pJ5QXectGv1ovg+eQpEDjEhmQkytZWi1GvtQ9A8Jt/pkFsmzO0LFvRVOndymBBDHumjcouFlUKr2GKhdv3bYFsDVtMusNTWBbHPTOWelCejJ9vt634n90PNqS0WFtT9ahtHa+BPioTq4RDDRsYNJXWIie/VFgsr1eJsF2lrcfTZ2ecDmwr9/LDy4Faw/yt07niQFm0JDEEDIOYtzPhXMt1xIsRCFU/aiVhATIgmQKYS/aXgpTy2eomduTaI7p9rPzdq7ULf6TSy2qqfOzkKICZamcf0hQFvs6vYyHpgEOP6wuTiOAbU7zPlZtj0+84GWt+EnxtDb7vcaLpf29S5mMZwj9rsKn7f2YW+s2oTapBSRSAmLr87JPekeZ6YXcpGFul3e93NrpZo67+PuptyVU1qP5cZRqvw2lzhVPcFvboeYNhPioIgpu8N0/aMueNEiAVJncjvYgMxXT0TZmaIqV/L91SACjS3ArGEmBle1j5sbG4jYO+pQJIViAXEzCS+CTHTEyPUkmxybDsVqK4CkUPMDB3LyYepawTc+EcFqEBzKxApxEyPS8Gpkld6Zc1twOw9FYgUYmYYudnPHEYqQAWaV4FIIda8srPnVIAKVEsBQqxaSrIcKkAFIlGAEItEdlZKBahAtRQgxKqlJMuhAlQgEgUIsUhkZ6VUgApUSwFCrFpKshwqQAUiUYAQi0R2VkoFqEC1FCDEqqUky6ECVCASBQixSGRnpVSAClRLAUKsWkqyHCpABSJRgBCLRHZWSgWoQLUUIMSqpSTLoQJUIBIFCLFIZGelVIAKVEuBiiGWy+XAgxrQBmgDcbEBQoxQ5kOJNpBoGyDEaMCJNuC4eANsR3SeKSFGiBFitIFE2wAhRgNOtAHTA4rOA4qL9oQYIUaI0QYSbQOEGA040QYcF2+A7YjOIyTECDFCjDaQaBsgxGjAiTZgekDReUBx0Z4QI8QIMdpAom2AEKMBJ9qA4+INsB3ReYSEGCFGiNEGEm0DhBgNONEGTA8oOg8oLtoTYoQYIUYbSLQNEGI04EQbcFy8AbYjOo+QECPECDHaQKJtgBCjASfagOkBRecBxUV7QiwuEJtawIHtM9i1fQ4TcWkT21Ee4LMPkZl9WN61rqbLWFpYQmZpucL7CC0TnoSYNKqJIwIghceLO2fR+4cMvs3W2HjiBLHsA5x/cxYvPe/o8dK+OVy9W8Zkc/tQqOOeX83h4/RSA07YRZzZ5/S398MK+ndtDi8Ke9s5j7QLthrbWIPWQ4gZEHtx5wx+sds7bEMTxvYvc5hYqKGRuQCojSf27XuzDqSPZEqAZAnn/82ZlLYWP5uRk20OE/dL9N/twwz2aBr+YqcHtQPvLZaov0QdsZuIDzFxbAYvPj+DwWsVeGNTC3j9pzN48TcL+Fb16cqcM0Z7te/UOb6G2g0hJo1DeWIFk2z2Pk7udSbhS8fvhwppurgVf3YBEDHE7sqwVngItve5jFt/cPr/9pUSgAntQxbffjiHl2xPdxbnZ0uU06wTlhDb1PwixEpBLJfD0if+J6QLvD9lcL7H8VTcCT6VwcnfaqHYnjmcKQijljFzaQ4HpIfy4itzODM678+JhQEhyNCzi7j6h1nsU+XJEHjGhlAGbweEyW57TWCoen+uvIFlpI85EBu8XgI+6t7AvN4D/M9uDYbatecn5h0tNA8kk17AsV9JL3D7DEQ4enUqK41c9WkWpy4t4MgrolwN/nfLGIOF+zjTI8fp+Rns61nAxGlnnNWDzB1nn/e4iDPyoeZoaH6WGplt+NksBj/VvFDfOHpl6CkN1Q7xQCyuh1NnwTWdQbZXYgxNe0jAZ0KsDIhlPpShmJxkyrhFCKGMzjbovy3ggMoj/cwJSVU4+vppz4Azn8h8yPYZvCSuUyGbDRs5GbVJ7kv0+4xfGKSXk9n1U6fOPT912rXnSAaZ3AOc75/DMZm32fXKLN7un8P5W2HG/ACn9jj3H/t0Ebfem8We7TN4cZ+CWth9OeTC2mxrfB+DErK2Vu61Tihm6yj1Xbo2Z9cpvrPDUqXP87M4/72oX0FMu1dBTJQbMgaD12VeL/sA/yP7qDQLCnnVOOswsfUuBbHvF9Ar27Dvt3N4+81Z/EJ+PnBK2oFvHJcwMTSHt38r7WnnLI71z+HUNSfHVlqPHHLX5x3Nnp/BgZ45vN0z66QBts/g7UrC3ARAy4xyCLGiEFvG0t8yOPIvjnHtG3pgewLKuEWe7PxXIg+yjFx2CR//xrlON/rMFTkhn5/DRTun5EHCu24ZmU9VuFUZxJbOSyDumccttfiwkMHbss2nvnKgU35OTJsQ0oP7xe8WcEeVXczIXTBpXpG4PruE9Ak5qZQO7rUzOHDiPmbEKl1WQMbT5+0rKse0jDsnHG2dkN6D2J6DGdy5n5X3PsTFgwFjoB4a/7aAjPCslWZ6njO7iFMSTmpc1Dirz87k8bymME9s5pTz0HvpmJZ+mJh3wund87gjNPFBTD4Ygr4rS48cJvqdfr9+xltcmDkjH749GSwVG7eEnyPE5AAqg1Welfn64r553JGJbXXtr//keVc5lUvaPoervgnvwe3IJw+R+9sCfi09Lt917qSuDGLKeP0TLYc7H87ZHtfHaScEKx9iWdw5M+d6Drta53BVLWjYWwmWkBHQCDJ8tw/OhDI1FJ+PnJeTzL3W0OvWPH4h9FGTXdWjdLPDXAWxWZz6m+YZ3s/giNTWeWDIc9kMjmmaB45fLgf1vdLS/FwuxDzPfR7p70O0CgJW0Hdl6ZFD+riEfE8G3zbZtg1CzICYuTr5es88znz6ABkNTIHGHWSARtn25Ai7TpvUdvhoflaT2Xe/6RVoE1pdL1/Lg9gyxHUiBH7x53M4Kb0aO5QU/ZfbAkIXONw2G6uTnbM49l8LSLs5rSKhp+qfDZ0gGArIexA7M6X1Was/CKC7ts/izFS4Zua4mp/LhVguq4X4Qsu2WfQeW8CE3n/VTy0PWNQ7K6pHDjnN+xZ9f+lnszjyXxncmS1ja4xhK4EPqBhfQ4jJwQk2WG2CaIMYeG2QUQaVHXadOwEr8cTCJ6RpiGVBbHYBvfZkmcV54X1pk1Hk10R+TEwQN6+jaWLXZ/bBPK9/DrtW6SPzQiJ/5z8yuFMGxHoL7hPlzGNi1gOMEw56Y2yOq/m5bIiJfmYf4tsrCxj87SxUjlJo93pgTky2QfU9CGxF9ZD3Z5dwa3QeR3414+7x2/X8DLyw3OuraR9J/kyIyYkVbLDBgx54rQonn5/DhOa15XLevis7nFST17xOfa8nqGUIVCyxHxZOztzM4OqnGdf7KQtit+axT9Tprkz6n/BqIUPl2QoM3+yDDi3zfdi112XuyN3iETQGIZ6YBuGP7QWAoHu9/JEvHVC1cFLuxJ99iCXXDrKYOS9znmLchRbFgKVDrCw9sliaXfL/aiD7EHeGZE5s3wJmTP0b6DMhJgczEEwhAx18recVqZyKPcnTEgwqoa0lar3rAhL7rrcxg5NpFRI8dPM2u9RKnkpS64n97H2clKtvaluEC7FDRTa7uhAQdWq5HLXyJcKUQ0WSxGFgCtIx7Nqst4p54E/OQoqtY3bRXmU9/zehRQjEcl7+0V6ZdSHyELdOzGFwwlkoKDex72r2mljllUDUVqCDE/veQ+vwqFqYyCH3/QJeFw+IciCmP0TK0sPTzLOVHHJqMYEQw8bGBp4+fWq/bit4+qrBTfhrMJhCnuTyJ0oehAoN3N46sdvb5+TbYqFWLIttschpwHpe/oJA2/muIBa0xUJtF3C2WMi2XfG2dYhtCycngvq2jPQfvDarXffq50d2nun5WZyxQRJwfxiYgmyjyLXuiq6dT/JvGxFgWwqFWM5eOFFbLNz8ptRtzyEJIy1MLrbFwtsyIvJa/i0zQotgiDmru2pLxa/Fdod+b0/gHrVhOsgTczVxtt4cPuMsHJXWI4eZUbX6O4PeN51tHfvkVpuKfg4VNFYx/46emBygqkBMlDWVwaCWk3ip3M2u6QzetvcSyXBDlKVvyLQ3fM5j4kP/xlvlpZibXY+8d9+3GJHLPUT6D97mzsFAiAkwZfHtp3N4Xe3NkkniY+9lMPEnOVH0rQm6gbuTUOuDfl5/X+LazFeOjmqf3Ut7ZnHS3Swa5olJsN69j1NqI6tMrB87Y+ihays3u54q2J7hbEp+vc1ZYBC/oz1yJuNuxQiFmOinYQciue9rQxDEcsv2Lxtc+EiIiTEurofo97K9IfZIp/cQ8msW8NDRxyPB7wmxBA9eo3rFUfWrkgdZVG1kvYUwJsQIseA9X02oCyFWCIgkQJMQa8LJmgTDjKKNhBghxic6gZhoGyDECLFEG3AUT37WmcxJw3GL17gxnKT3xIcPbSDRNkCI0YATbcD0iuLlFUUxHoQYIUaI0QYSbQOEGA040QYcxZOfdcbL+yPECDFCjDaQaBsgxGjAiTZgekXx8oqiGA9CjBAjxGgDibYBQowGnGgDjuLJzzrj5f0RYoQYIUYbSLQNEGI04EQbML2ieHlFUYwHIUaIEWK0gUTbACFGA060AUfx5Ged8fL+KoXY/we4rGIXU2+9wgAAAABJRU5ErkJggg==;" vertex="1" parent="WIyWlLk6GJQsqaUBKTNV-1">
          <mxGeometry x="520" y="120" width="249" height="230.22" as="geometry" />
        </mxCell>
        <mxCell id="JRiYcBHVBFqXgaBX5MrF-12" value="&lt;div style=&quot;text-align: center&quot;&gt;&lt;span style=&quot;font-size: 24px&quot;&gt;&lt;b&gt;&lt;span style=&quot;white-space: pre&quot;&gt;	&lt;/span&gt;&lt;span style=&quot;white-space: pre&quot;&gt;	&lt;/span&gt;&lt;span style=&quot;white-space: pre&quot;&gt;	&lt;/span&gt;&lt;span style=&quot;white-space: pre&quot;&gt;	&lt;/span&gt;&lt;span style=&quot;white-space: pre&quot;&gt;	&lt;/span&gt;&lt;span style=&quot;white-space: pre&quot;&gt;	&lt;/span&gt;Max VM check&lt;/b&gt;&lt;/span&gt;&lt;span style=&quot;font-size: 24px ; font-weight: 700&quot;&gt;&amp;nbsp;&lt;/span&gt;&lt;/div&gt;&lt;h1 style=&quot;text-align: center&quot;&gt;&lt;span style=&quot;font-size: 12px ; font-weight: normal&quot;&gt;This test is focused to check if validation of max VM&#39;s number works correctly.&amp;nbsp;&lt;/span&gt;&lt;br&gt;&lt;/h1&gt;" style="text;html=1;strokeColor=none;fillColor=none;spacing=5;spacingTop=-20;whiteSpace=wrap;overflow=hidden;rounded=0;align=left;" vertex="1" parent="WIyWlLk6GJQsqaUBKTNV-1">
          <mxGeometry x="10" y="20" width="780" height="60" as="geometry" />
        </mxCell>
      </root>
    </mxGraphModel>
  </diagram>
  <diagram id="KPvtkles8rw0EX7tZRxQ" name="Search">
    <mxGraphModel dx="1422" dy="914" grid="1" gridSize="10" guides="1" tooltips="1" connect="1" arrows="1" fold="1" page="1" pageScale="1" pageWidth="827" pageHeight="1169" math="0" shadow="0">
      <root>
        <mxCell id="UBoPdiz6FLHq6lqKwXV1-0" />
        <mxCell id="UBoPdiz6FLHq6lqKwXV1-1" parent="UBoPdiz6FLHq6lqKwXV1-0" />
        <mxCell id="SNKitbrlRbc48TKWUQNq-0" value="Search bar" style="rounded=0;whiteSpace=wrap;html=1;align=center;" vertex="1" parent="UBoPdiz6FLHq6lqKwXV1-1">
          <mxGeometry x="313" y="190" width="120" height="30" as="geometry" />
        </mxCell>
        <mxCell id="SNKitbrlRbc48TKWUQNq-1" value="&lt;b&gt;WORDLIST&lt;/b&gt;&lt;br&gt;Apreo&lt;br&gt;_Apreo&lt;br&gt;_Apreo_&lt;br&gt;__Apreo&lt;br&gt;_tab_Apreo&lt;br&gt;reo&lt;br&gt;Ap&lt;br&gt;_AP&lt;br&gt;etc." style="whiteSpace=wrap;html=1;aspect=fixed;align=center;" vertex="1" parent="UBoPdiz6FLHq6lqKwXV1-1">
          <mxGeometry x="40" y="160" width="200" height="200" as="geometry" />
        </mxCell>
        <mxCell id="SNKitbrlRbc48TKWUQNq-3" value="" style="endArrow=classic;html=1;rounded=0;exitX=1;exitY=0;exitDx=0;exitDy=0;entryX=0.5;entryY=0;entryDx=0;entryDy=0;" edge="1" parent="UBoPdiz6FLHq6lqKwXV1-1" source="SNKitbrlRbc48TKWUQNq-1" target="SNKitbrlRbc48TKWUQNq-0">
          <mxGeometry width="50" height="50" relative="1" as="geometry">
            <mxPoint x="400" y="500" as="sourcePoint" />
            <mxPoint x="450" y="450" as="targetPoint" />
            <Array as="points">
              <mxPoint x="363" y="160" />
              <mxPoint x="373" y="160" />
            </Array>
          </mxGeometry>
        </mxCell>
        <mxCell id="SNKitbrlRbc48TKWUQNq-5" value="Should find&lt;br&gt;Apreo/Apreo2" style="rhombus;whiteSpace=wrap;html=1;align=center;" vertex="1" parent="UBoPdiz6FLHq6lqKwXV1-1">
          <mxGeometry x="300" y="280" width="146" height="80" as="geometry" />
        </mxCell>
        <mxCell id="q06rgcm80BmWLIRigGDP-0" value="" style="endArrow=classic;html=1;rounded=0;exitX=0.5;exitY=1;exitDx=0;exitDy=0;entryX=0.5;entryY=0;entryDx=0;entryDy=0;" edge="1" parent="UBoPdiz6FLHq6lqKwXV1-1" source="SNKitbrlRbc48TKWUQNq-0" target="SNKitbrlRbc48TKWUQNq-5">
          <mxGeometry width="50" height="50" relative="1" as="geometry">
            <mxPoint x="349" y="490" as="sourcePoint" />
            <mxPoint x="399" y="440" as="targetPoint" />
          </mxGeometry>
        </mxCell>
        <mxCell id="q06rgcm80BmWLIRigGDP-1" value="Test Passed" style="rounded=0;whiteSpace=wrap;html=1;align=center;" vertex="1" parent="UBoPdiz6FLHq6lqKwXV1-1">
          <mxGeometry x="500" y="300" width="100" height="40" as="geometry" />
        </mxCell>
        <mxCell id="q06rgcm80BmWLIRigGDP-2" value="Test Failed" style="rounded=0;whiteSpace=wrap;html=1;align=center;" vertex="1" parent="UBoPdiz6FLHq6lqKwXV1-1">
          <mxGeometry x="323" y="400" width="100" height="40" as="geometry" />
        </mxCell>
        <mxCell id="q06rgcm80BmWLIRigGDP-4" value="" style="endArrow=classic;html=1;rounded=0;exitX=0.5;exitY=1;exitDx=0;exitDy=0;entryX=0.5;entryY=0;entryDx=0;entryDy=0;" edge="1" parent="UBoPdiz6FLHq6lqKwXV1-1" source="SNKitbrlRbc48TKWUQNq-5" target="q06rgcm80BmWLIRigGDP-2">
          <mxGeometry width="50" height="50" relative="1" as="geometry">
            <mxPoint x="400" y="490" as="sourcePoint" />
            <mxPoint x="450" y="440" as="targetPoint" />
          </mxGeometry>
        </mxCell>
        <mxCell id="q06rgcm80BmWLIRigGDP-5" value="" style="endArrow=classic;html=1;rounded=0;exitX=1;exitY=0.5;exitDx=0;exitDy=0;entryX=0;entryY=0.5;entryDx=0;entryDy=0;" edge="1" parent="UBoPdiz6FLHq6lqKwXV1-1" source="SNKitbrlRbc48TKWUQNq-5" target="q06rgcm80BmWLIRigGDP-1">
          <mxGeometry width="50" height="50" relative="1" as="geometry">
            <mxPoint x="400" y="490" as="sourcePoint" />
            <mxPoint x="450" y="440" as="targetPoint" />
          </mxGeometry>
        </mxCell>
        <mxCell id="q06rgcm80BmWLIRigGDP-6" value="True" style="text;html=1;strokeColor=none;fillColor=none;align=center;verticalAlign=middle;whiteSpace=wrap;rounded=0;" vertex="1" parent="UBoPdiz6FLHq6lqKwXV1-1">
          <mxGeometry x="440" y="290" width="60" height="30" as="geometry" />
        </mxCell>
        <mxCell id="q06rgcm80BmWLIRigGDP-8" value="False" style="text;html=1;strokeColor=none;fillColor=none;align=center;verticalAlign=middle;whiteSpace=wrap;rounded=0;" vertex="1" parent="UBoPdiz6FLHq6lqKwXV1-1">
          <mxGeometry x="363" y="360" width="60" height="30" as="geometry" />
        </mxCell>
        <mxCell id="q06rgcm80BmWLIRigGDP-9" value="&lt;h1&gt;Search&lt;/h1&gt;&lt;p&gt;This test is testing what tags are known by search function&lt;/p&gt;" style="text;html=1;strokeColor=none;fillColor=none;spacing=5;spacingTop=-20;whiteSpace=wrap;overflow=hidden;rounded=0;align=center;" vertex="1" parent="UBoPdiz6FLHq6lqKwXV1-1">
          <mxGeometry x="10" y="10" width="800" height="80" as="geometry" />
        </mxCell>
      </root>
    </mxGraphModel>
  </diagram>
</mxfile>
